<?xml version="1.0" encoding="UTF-8"?>
<svg xmlns="http://www.w3.org/2000/svg" version="1.1" viewBox="0 0 343.9 178.2">
  <defs>
    <style>
      .cls-1 {
        fill: #fff;
      }

      .cls-2 {
        isolation: isolate;
      }
    </style>
  </defs>
  <!-- Generator: Adobe Illustrator 28.6.0, SVG Export Plug-In . SVG Version: 1.2.0 Build 709)  -->
  <g>
    <g id="Layer_2">
      <g id="Layer_1-2">
        <g>
          <g class="cls-2">
            <g class="cls-2">
              <path class="cls-1" d="M144.8,131.1c-.4-2.6-.6-5-.6-7.2v-4.2c-.4-3.9-1.1-8.6-2.3-14.2,0-4.3,0-9.7.3-16.2.2-5.7.3-10.1.3-13s-.2-1.9-.6-2.3c0-1.4-.3-3.5-.5-6.2-.2-2.7-.5-4-.6-3.9h-9.6l-1.1-.6c-1.9.2-3.2.3-3.7.3-1.2,0-2.8-.2-4.7-.6-1.9-.4-2.9-.9-2.9-1.6l-.4-12.9c0-.2-.2-.5-.3-.9,0-.4-.2-.7-.3-.9,0-1.1,3.2-1.7,9.7-1.7s2.2.2,3.7.6c10.9,0,18,.2,21.5.6.8,0,2,.1,3.7.1s1.3,0,2.9.1c1.5,0,2.9.4,4,.9h24.9c.9,0,1.4,0,1.6.3.2.2.3.6.3,1.3,0,1-.1,2.4-.4,4.4-.3,1-.4,2.1-.4,3.3v4.7c.1,0-.4.7-.4.7h-4.6c-1.9-.1-4.2,0-6.9.6-.7,0-1.9.2-3.6.4-1.7.2-3.2.3-4.6.3h-2.7c-.9-.1-1.9,0-3.2.4v.7c0,1.9.4,4.6,1.1,8l.6,3.2c1.2,7,1.9,15,1.9,24.2s-.1,6.4-.4,9.6c-.2,4-.3,7.1-.3,9.3s.1,4.7.4,7c.2,3.2.3,5.6.3,7.2s-.1,1.7-.4,2.2c-.2.5-.7.8-1.5.8l-17.9-1.1c-1.1,0-1.9-1.3-2.3-3.9ZM120.7,58.7h.9c.6,0,1.2-1,2-2.9.8-1.7,1.5-3.2,2.3-4.4.8-1.2,1.8-2.2,3-2.9-.6.2-1,.3-1.1.3-.4,0-.7,0-1-.1-.3,0-.5-.1-.7-.1h-1.9c-.4.1-.7,0-1,0-1,0-1.7.1-2.1.4-.5.2-.7.8-.7,1.6s.2,1.9.7,3c.4,1.3.6,2.4.6,3.2-.6,1.1-.9,1.8-.9,2ZM126.7,57.4c-.8,0-1.8.8-3,2.4h5.7c.4,0,1.1-.7,2.2-2.1,1.1-1.4,2-2.8,2.8-4.2l-7.3,4h-.4ZM128.6,51.2c-2.2,1.5-3.3,3.3-3.3,5.4.9,0,3-1,6.4-3.1,3.4-2.1,5.5-3.5,6.2-4.4h-2.9c-2.1-.1-4.2.6-6.4,2.1ZM136.2,58.2c-1.5.8-2.4,1.4-2.7,1.6,0,0-.2,0-.4.2-.1.1-.3.2-.4.2h3.3c2.6.1,5.3-.4,8.2-1.4,2.9-1,4.4-2.2,4.4-3.5v-.7c-.5.5-1.2.7-2.1.7h-.7c.6-.8,1.4-1.4,2.6-1.9,1.1-.5,2.3-.9,3.4-1.2,1.1-.3,1.9-.5,2.1-.6.4,0,1.2-.3,2.5-.7,1.3-.4,2.1-.8,2.4-1.3-.9,0-1.6,0-2.2.1-.6,0-1.1.1-1.5.1s-.7,0-1.3-.3h-4.7l-.4,1.1c.5,0,1,0,1.4-.3.5-.2.9-.3,1.1-.3s.5.2.9.6c-.5.4-1.1.7-1.7,1.1-.7.3-1.2.5-1.7.5l-1.7-.4c0,.5-.9,1.8-3,3.9-2.1,2.1-3.6,3.2-4.6,3.2,0,0,0-.2-.1-.4,0-.1-.1-.3-.1-.5,0-.3.3-.7.7-1.3.4-.6.7-1,1-1.1h-1.1c-.8.8-1.9,1.6-3.4,2.4ZM140.2,53.9c2.5-1.8,4.3-3.4,5.6-4.8-.4-.2-1.1-.3-2-.3s-1.9.5-3.2,1.4c-1.2.9-2.1,1.6-2.4,1.9,0,0-.6.6-1.4,1.8-.9,1.2-1.8,2.2-2.9,3.1v.6c1.7-.7,3.8-1.9,6.3-3.7ZM145.5,63.7c.1.2.3.3.4.3,2.7-.9,5.8-2.9,9.4-6,3.6-3.2,5.5-4.8,5.7-4.9.4-.2.9-.4,1.6-.6.7-.2,1.1-.5,1.2-.8s.2-.8.2-1.4c-.6.4-1.2.6-1.9.6-.7,0-1.4.2-2.1.5-1.8.8-3.9,2.1-6.3,4-1.9,1.3-3.5,2.4-4.9,3.2-1.3.8-2.7,1.3-4.2,1.7l.7,1.1c.3-.3.7-.5,1.4-.8.6-.2,1.1-.4,1.4-.4l-2.7,3c0,0,0,.2.2.4ZM157.7,82.8c-1.5,1.1-3.7,2.3-6.6,3.7-2.3,1.1-3.7,1.9-4.2,2.3-1.2,1.1-1.9,3.5-1.9,7.3.6,0,2.6-1.4,6.1-4.1,3.5-2.7,5.5-4.4,5.9-5.1-1.1,0-2.5.6-4.4,1.9v-.7c-.9,1.2-2.8,2.2-5.7,2.9v-1.3c.9,0,1.8-.2,2.7-.6,1-.4,2.2-1.1,3.9-2.1,1.8-1.1,3.4-2,4.7-2.6,1.3-.6,2.7-.9,4.2-.9,0-3.1-.3-7.2-.9-12.4-.6-5.2-1.2-7.8-1.9-7.8s-2.6.9-5.2,2.7c-.3.2-1.1.7-2.5,1.5-1.4.8-2.5,1.3-3.4,1.5h1.6l8-2.7h.6c.6-.1,1,0,1.1.4l-2.9,2.9c-.5.4-1.3.8-2.4,1.4-1.1.5-2.1,1.1-2.9,1.6-.8.6-1.1,1.1-1.1,1.6.7,0,2.1-.2,4.2-.7,1.9-.6,3.4-.9,4.4-.9v1.4c.1.5,0,.9-.4,1.1-.4.3-1.1.6-2.1,1.1-1,.4-1.6.8-1.8,1.2-1.3.9-3.1,2.6-5.2,5.2l8.4-4c.2,0,.5,0,1,.2.5.1.7.4.7.6,0,1.2-.8,2.4-2.3,3.4ZM148.3,70.3c-2.1,1-3.1,2.3-3.1,4.2,1.3,0,2.6-.4,3.7-1.1,1.1-.7,2.2-1.5,3.3-2.4,1-.9,1.9-1.6,2.4-2.1-2.2,0-4.3.5-6.4,1.4ZM145.8,68.9l5.6-2.7c.2,0,.4-.6.7-1.9v-.9c-.1,0,1.7.4,1.7.4.6-.3,1.6-1,2.9-2.1,1.4-1.1,2.3-1.9,2.6-2.5-.5,0-.7-.4-.7-1s0-.6.1-.7c-3.3,2.9-6.9,5.1-10.7,6.7,0,.2,0,.4.2.5.1.1.3.2.4.2.3,0,.6-.1,1-.4.4-.2.8-.4,1.3-.4,0,.5-.3.8-.7,1.1-.4.2-.8.4-1.2.6s-.7.3-.9.4c-1.8.4-2.7,1.1-2.7,2s.1.6.4.6ZM147.2,75.8c-1.1.9-1.8,1.4-1.9,1.5l.4,11.5c.3-.3,1.5-1.2,3.7-2.6,2.1-1.5,3.2-2.6,3.2-3.2-.7.2-1.6.5-2.8,1.1-1.2.5-2.2.8-2.9.8,0,0-.2-.2-.4-.4-.1-.2-.3-.3-.4-.4,0-.2.4-.7,1.2-1.4.8-.8,1.4-1.3,1.6-1.7.4-.3,1.8-1.3,4.3-3.2,2.5-1.8,3.7-3.2,3.7-4.3-.8.6-1.9,1.1-3.5,1.6-1.6.5-2.8.7-3.8.7v-1.1c-.6,0-1.4.5-2.6,1.4ZM146.3,104l2.6-2.4c1-1,2-1.9,3-2.7,1-.9,2.2-1.6,3.4-2.1-1.3,0-3.1.3-5.2.9-2.3.6-3.9.9-4.9.9v6.2l1-.6ZM145.6,110.2c0,1.3,0,2.4.3,3.4.2,1,.5,1.9,1,2.7.5-.6,1.5-1.3,3-2.3,1.3-.9,2.4-1.6,3.1-2.2.7-.6,1.1-1.4,1.2-2.2-.3,0-.8.3-1.6.6-.8.3-1.4.7-1.6,1.1,0-.4-.4-.6-1-.6s-.7,0-1.1.1c-.3,0-.6.1-.6.1,0-1.1.5-2.2,1.4-3.1,1-.9,2.3-1.9,4-3.1,2.2-1.5,3.5-2.6,4-3.2l-5.6,2.3c-.6,0-1.4.2-2.6.4-1.1.2-2.1.5-2.8.9-.7.4-1.1,1.1-1.1,1.9v2.9ZM146.9,120.5c0,.3.3.6.6.9.4-.4,1.4-1.2,3.2-2.4,1.7-1.2,2.6-2,2.6-2.4v-.4c-1.3,0-2.6.5-4.2,1.1-1.5.6-2.3,1.3-2.3,2.1s0,.7.1,1.1ZM150.5,125.6c1.2-.6,2.2-1.1,2.9-1.6.7-.5,1.1-1,1.1-1.4-1,0-2.1.2-3.4.6-1.2.5-2.4.7-3.6.7v3.3c.8-.5,1.8-1,3-1.6ZM158,97.3c-1.2.9-3,2.1-5.5,3.7-1.8,1-3.1,1.8-3.9,2.4l11.9-4.6c.6.3,1,.4,1.3.4,1,0,1.6-1,1.6-3s-.1-1.1-.4-1.7c-.2-.6-.4-1.2-.4-1.9s0-1.2.3-1.7c.2-.5.3-.9.3-1.1,0-.7-.1-1.5-.4-2.6-.2-1-.5-1.9-.8-2.4,0,.6-.6,1.3-1.4,2.1-.8.9-1.5,1.5-1.9,1.9-1.1,0-2,.3-2.9.9-.9.6-2,1.5-3.4,2.9-1.7,1.7-3.2,2.9-4.4,3.4v.7c1.2,0,2.4-.1,3.6-.4,1.1-.3,1.9-.5,2.1-.6,2.5-.8,4.5-1.1,6-1.1,0,1-.6,1.9-1.8,2.8ZM148.7,132.3c.1.2.5.3,1.1.4.7,0,1.2-.1,1.5-.4.3-.2.6-.6.9-1.2.5-.7.9-1.1,1.2-1.4.3-.3,1-.4,1.9-.4s1,.2,1.1.7c-.2.3-.5.5-1,.7-.5.2-.9.3-1.3.3,1.6.5,3.4.9,5.4,1.2,2,.3,3.4.6,4.4.6,0-.6-.2-1.4-.6-2.4-.4-1-.6-1.8-.6-2.3s.1-.2.4-.4c0-.2-.3-.3-.6-.4-.3,0-.6-.1-.9-.1s-.6.2-.6.7c0,.5-.2.9-.4,1.1-.2.3-.7.4-1.6.4s-1.1,0-1.3-.3c-.2-.2-.3-.4-.4-.7,0-.3-.2-.5-.4-.7.2-.3.5-.6.8-.9.3-.3.6-.6.9-.8-.5,0-1.3.2-2.6.5-1.2.3-2.1.5-2.7.5,0-.7,1.9-1.6,5.7-2.9,2.4-.8,3.6-1.3,3.6-1.6v-10.2c.2,0,.3-.7.4-2.2,0-1.5.1-2.5.1-3.1,0-4,.2-6,.6-6l.4-.6-1.1-1.1c-.4.9-.9,1.6-1.6,2.1-.7.5-1.5,1.1-2.4,1.6-.9.5-1.6,1-2.2,1.5-.4.3-1.1.8-2.2,1.6-1.1.8-2.3,1.5-3.5,2.3v.6c1.1,0,2.5-.4,4-1,1.7-.7,3.3-1,4.7-1,0,1.1-.7,2.1-1.9,3-1.1,1-2.8,2.1-4.9,3.4-2.4,1.3-3.6,2.3-3.6,2.9.5-.3,1.4-.8,2.8-1.5,1.4-.7,2.6-1.3,3.8-1.7,1.1-.4,2.2-.6,3.3-.6s.8,0,1,.1c.2,0,.3.4.3,1,0,1-2.3,2.6-7,5-.7.4-1.6.9-2.6,1.6-1.1.7-2,1.3-2.6,1.8.9,0,2.1-.3,3.6-.9,1.3-.6,2.4-.9,3.2-.9s.2,0,.4.2c.2.1.3.3.3.4,0,0,.2-.3.6-.7.4-.4.7-.7,1-.9.4,0,.8.2,1.2.5.4.3.6.6.6.9,0,.7-.6,1.4-1.9,2.1-1.2.8-3.2,1.9-5.7,3.3-2,1.1-3,1.6-2.9,1.6.5,0,.7.5.7,1.1s-.2.8-.6,1.2-.6.8-.6,1.2,0,.8.2,1ZM165.8,51c0,.8-.3,1.4-.9,2-.6.6-.9,1-1,1.1-1.2,1.1-1.9,2-1.9,2.9l11.5-6.7v-.6l-7.9.6v.7ZM177.4,50.3c-.2,0-2.2,1.5-6.1,4.4-3.9,2.9-6,4.7-6.4,5.2h.7l4.4-3.4v.6c.4-.5,1.1-1,2.2-1.6,1.1-.6,2.2-1.2,3.4-1.8,3.5-1.7,5.3-2.9,5.3-3.6-1.6,0-2.8,0-3.6.3ZM168.4,60.2c.2,0,.4.1.6.1,1.4,0,3-.6,4.8-1.7,1.8-1.1,3.2-2.4,4.2-3.9-1.1,0-3.3,1.1-6.9,3.4-2,1.1-3.1,1.6-3.2,1.7,0,0,.2.2.4.3ZM178.7,56.2c-1.9,1.3-3.2,2.5-4,3.7,2.5-1.2,4.9-2.5,7.2-3.7,2.3-1.2,3.9-2.1,4.7-2.6v-3.2c-.6,0-1.2.3-2,.9-.8.6-1.1,1.2-1.1,1.8s0,.3.1.4c-1.3.5-3,1.4-4.9,2.6ZM186.9,55.4c-.7.6-1.9,1.3-3.8,2.1-1.9.8-3.4,1.4-4.5,1.8l8.3.6v-4.4Z"/>
            </g>
          </g>
          <g class="cls-2">
            <g class="cls-2">
              <path class="cls-1" d="M17,111.4l-3.2,3.9c.2.3,1.3,1.6,3.3,3.9,2.2,2.4,3.9,4.4,5.2,6,1.3,1.6,1.9,2.6,1.9,3.1s-.3.8-.9,1c-.6.2-1.4.2-2.4.2s-.4,0-.9,0c-.5,0-.7.1-.7.3h-5.3l-10.6-10.2c0-.4-.3-.8-.8-1.3-.6-.8-.9-1.4-.9-2s.1-.6.3-.9c.2-.3.5-.5.7-.7.3-.2.5-.4.6-.5l9-9.1c.2-.2.6-.5,1.1-1,.5-.4.8-.8.9-1,0-.3.2-.6.5-.8.4-.2.7-.3,1.1-.3h1.9c.4,0,.8,0,1.1,0,.3,0,.8,0,1.4,0,2.7,0,4,.4,4,1.2s-.7.9-2.2,2.3l-1.4,1.3c-.8,1.1-2.1,2.6-3.8,4.7ZM4.4,117.3c.2,0,.4-.1.6-.4s.5-.5.8-.7c0,0,.2.1.3.1s.2,0,.3-.2c0-.1.1-.2.2-.3.6-.6,1.4-1.1,2.4-1.6,1-.5,2.3-.9,3.7-1.4v-.3c-.3,0-.6.1-1,.3-.4.1-.6.2-.7.3-1,.3-1.8.5-2.2.5v-.5c-1.2.4-2.3.9-3.4,1.6-1.1.7-1.6,1.3-1.6,1.9.2.4.4.6.6.6ZM6.9,117.7c.5-.3,1.1-.6,2-.9.8-.3,1.4-.5,2-.8.5-.3,1-.7,1.4-1.3-.6.3-1.3.6-2,.9-.7.3-1.2.4-1.4.5-1,.3-1.8.6-2.4.8s-1.2.6-1.7,1.1l.9.8c.4-.5.8-.9,1.3-1.2ZM7.9,121c.2,0,.7-.4,1.7-1.1,1-.7,1.8-1.3,2.6-1.8-.2,0-.9.2-2.2.5-1.2.3-2.5.7-3.7,1.2,1.1.8,1.6,1.2,1.5,1.2ZM8.2,111.5c-.3.5-.6.9-.7,1.3.8-.5,1.9-.9,3.2-1.3,1.4-.5,2.4-1,3.2-1.3.7-.4,1.4-.9,1.9-1.5-.7,0-1.8.4-3.4.8-1.6.5-2.7.8-3.2,1.1-.3.1-.6.4-.9.9ZM12.8,116h-.6c-.6.4-1.7,1-3.1,1.7-.2.1-.5.3-.8.5-.3.2-.5.3-.5.3,1.8-.6,3.1-1,3.8-1.2.7-.2,1.2-.3,1.3-.3v-1ZM10.5,123.2l3.6-2.8c-.7,0-1.6.2-2.7.7-1.1.5-1.9.8-2.3,1.1.4.7.8,1,1.2,1h.3ZM14.2,118.3c-.2-.2-.4-.2-.6-.2s-1,.5-2.3,1.4c-1.3.9-2,1.5-2.2,1.7.6,0,1.5-.2,2.7-.6,1.2-.4,2.2-.9,2.8-1.3-.2-.4-.3-.7-.5-.9ZM12.7,114.1c.8-.4,1.3-.8,1.4-1.3l-2.1,1-1.1,1c.4,0,1-.2,1.8-.6ZM12,125.2c.2.3.4.4.7.4l3-2.5h-.5c-.4,0-1.2.2-2.2.5-1,.3-1.5.6-1.5.8,0,.3.2.6.4.9ZM16.7,120.9c-.3-.4-.7-.6-1.1-.6-.7,0-1.5.5-2.4,1.5-.9,1-1.4,1.6-1.5,1.6.5-.2,2.3-.7,5.5-1.4,0-.4-.2-.8-.5-1.2ZM15.8,110.5c.2-.4.3-.6.3-.7l-3.6,1.9h.3c1.3-.3,2.1-.5,2.4-.6.2,0,.4-.3.6-.7ZM16.5,104.6c-1.7.6-2.9,1.3-3.5,2.1.3,0,.8,0,1.3-.2.5-.1.8-.2,1.1-.3,1.2-.4,2.1-.6,2.9-.6,0,0,0,.2.2.3.1.2.2.3.2.4s-.7.3-2.2.8-2.4.9-2.7,1.2l-.3.3h.3c0-.1.6-.4,1.9-.7,1.3-.4,2-.6,2.3-.7.4-.1.8-.4,1.2-.7.4-.3.8-.8,1.4-1.4.6-.7.9-1.1,1-1.2-.2-.2-.4-.3-.6-.3-1,0-2.4.3-4.2.9ZM17.5,122.3c0,.3-.2.8-.7,1.2-.5.5-1,.9-1.6,1.4-.6.5-1,.8-1.3,1l5-1.7c-.4-.9-.9-1.5-1.4-1.9ZM16.4,127c.6-.7,1.2-1.4,1.6-2-.5.1-1.3.4-2.3.8-1,.4-1.5.8-1.5,1.1l.8,1.1c.3,0,.8-.3,1.4-1ZM19.5,125c-.3.5-.9,1.2-2,2.1-.3.3-.6.5-.8.7-.2.2-.4.4-.4.5.5-.2,1.3-.5,2.3-.8.9-.2,1.7-.5,2.4-.9l-1.6-1.7ZM21.9,127.8l-.3-.5-1,.5h1.4Z"/>
            </g>
            <g class="cls-2">
              <path class="cls-1" d="M60.4,129.2c0,.8.1,1.4.2,1.7.2,1.4.3,2.6.3,3.7,0,1.6-.3,2.4-1,2.4s-.3,0-.5-.3c-.2-.2-.4-.3-.4-.3h-4.7c-.3.2-.6.3-.8.3-.4,0-.8-.1-1.1-.4-.4-.2-.5-.5-.5-.9s0-.3.2-.5c.1-.3.2-.4.3-.5.5-3.6.8-7.2.8-10.9s-.1-5.9-.4-7.7c-.3-1.8-.9-3.3-1.8-4.3-.9-1-2.4-1.5-4.4-1.5s-4.5,1.1-6.1,3.3v.4c0,.3-.1,1-.5,1.9-.5,1.3-.8,2.3-.8,3.2s.2,2.1.5,3.6c0,.3.1.7.3,1.4s.2,1.3.2,1.9c.2,1.5.3,2.7.3,3.4,0,.7,0,2,0,4s-.3,3.3-1,3.3l-7-.6.2-3.3v-2.3c.1-.2,0-1.1-.2-2.8,0-.9.1-1.9.3-3.1.2-1.3.3-2.3.3-3-.9-6.5-1.4-11.4-1.4-14.8s0-1.3.1-2.3c0-1.1.1-1.9.1-2.4s0-1.5-.1-2.6c0-1.1-.1-2-.1-2.5s0-.7.1-1.2c0-.6.1-1,.1-1.4,0-1.1-.4-2.6-1-4.5l-.5-1.9c0,0,.1-.2.3-.2.1,0,.2,0,.3,0,.1,0,.4,0,.8.3.4.2.9.3,1.4.3l1.1-.2h5.3l.3.2c0,.3.1,1.4.4,3.2.5,2.9.8,5.2.8,6.9s0,1.1-.1,2c0,.9-.1,1.6-.1,2.1,1,0,2.3-.2,3.9-.7.2,0,.8-.2,1.6-.4.9-.2,1.7-.3,2.4-.3,1.2,0,2.6.3,4,.8,1.4.5,2.5,1.2,3.2,2,1.2,1.5,2.2,2.8,2.7,3.9.6,1.1.9,2.2,1.1,3.1.1.9.2,2.2.3,3.7,0,.9,0,1.6,0,2.1.4,2.7.6,4.3.6,4.7,0,.9-.1,1.9-.3,3.1-.2,1.3-.3,2.2-.3,2.8s0,1.4.1,2.2ZM33.4,91.4l1.9-1.4c.2,0,.4-.1.6-.4.2-.2.4-.4.5-.5h-3.9l.9,2.2ZM33.8,92.3c-.3.1-.4.3-.4.6l.3,1.4c.9-.3,1.9-1.2,2.9-2.5-.4,0-1,.2-1.8.6,0-.2,0-.3-.3-.3s-.5,0-.7.2ZM38.2,97c.6-.2,1-.4,1.2-.5,0-.3,0-.8-.3-1.4-.7.3-1.1.6-1.1.7,0,.1-.1.3-.3.5s-.7.5-1.5.9c-.9.5-1.5.9-2,1.2-.5.3-.7.8-.7,1.2,0,.7.1,1.3.3,1.6,2.3-1.3,3.9-2.5,4.8-3.5h-1.5c-.3,0-.6,0-.8,0,.6-.2,1.3-.4,1.8-.6ZM33.9,111.5h.3c0,0,.9-.6,2.4-1.6,1.5-1,2.3-1.7,2.3-2.1,0,0-.2-.2-.2-.3,0-.1,0-.2,0-.3,0-.1,0-.3.1-.5,0-.2.1-.4.1-.6v-.4c-.2,0-.8.4-1.7,1.2l-1.6,1.2c0,.4,0,.6-.3.6s-.2,0-.3,0c-.1,0-.2,0-.3,0v-.4c0-.4.5-.9,1.5-1.4.8-.5,1.4-1,1.8-1.4.4-.4.6-.9.6-1.6v-.9l-1.6,1.3c-.5.4-1,.8-1.5,1.2-.5.4-.9.5-1.2.5,0-.5.1-.8.3-1.1.2-.2.5-.5,1-.7.7-.3,1.1-.7,1.4-1l.2.3c.1-.3.4-.7.9-1.3.5-.5.7-.9.8-1-.5,0-1.1.1-1.7.4-.6.3-1.2.5-1.8.8-.5.3-.9.5-1.1.5-.5.3-.7.9-.7,2v1.1c0,.8.1,2.6.3,5.5ZM37.7,93.9c.2,0,.4-.2.6-.2.2,0,.4-.1.5-.2,0,0,.1-.3.1-.6,0-.6,0-1.1-.3-1.7-1.5,1-3.1,2.5-5,4.4v2.4l2.8-1.9c.2-.2.5-.4,1-.8.7-.4,1.2-.8,1.4-1.2v-.3h-1.1ZM35.9,114.4c.6-.6,1.6-1.4,2.9-2.5.9-.7,1.4-1.1,1.5-1.2-.6,0-1,0-1.4.2-.4.2-.8.4-1.3.7-.6.4-1.1.7-1.5.8-.8,0-1.3,0-1.6.3-.3.2-.4.7-.4,1.4v1.7c0,1.5.2,2.6.6,3.3.6-1.1.9-1.8,1.1-1.9.2-.1.5-.3.8-.4.3-.2.6-.3.8-.5.2-.2.3-.5.3-.8-.4,0-.8.1-1.4.3-.6.2-1,.3-1.3.3,0-.4.3-.9.9-1.4ZM34.7,133.8c0-.4.2-.8.5-1.2.4-.4.8-.8,1.2-1.1.5-.4.8-.6.9-.7.5-.3.9-.7,1.3-1-.3,0-.6,0-1.2.2-.5.1-.9.2-1.1.2.8-.7,1.4-1.1,1.9-1.1v-1.5c-.4.5-.9,1-1.6,1.5-.7.6-1.2.9-1.4,1v-.6l2.8-2.8v-.8c-.2,0-.4,0-.6.2-.2.2-.3.3-.3.5-.2,0-.5.2-1,.2-.4,0-.7,0-.9,0,.1-.4.3-.7.5-.8.2-.2.5-.3.9-.5.5-.1.8-.3,1-.5.2-.2.3-.7.3-1.4-.5,0-1.2.6-2.2,1.6-.9,1-1.4,1.8-1.4,2.5v7.2l4.2-.3c0-.4,0-.8-.2-1-.2-.2-.3-.5-.4-.7-.2.6-.6.9-1.1,1.1s-1.2.3-1.9.3c.3-.3.9-.7,1.8-1.2.9-.5,1.5-.7,1.8-.7v-1.2c-.5,0-.9.1-1.2.4-.3.3-.6.6-1,1.1-.3.3-.5.6-.8.9-.3.3-.6.4-.9.5,0,0,0-.2,0-.4ZM34.8,120.5c0,.3.2.7.3,1,1.5-.8,2.2-1.6,2.2-2.5s0-1.3-.3-1.6l-2.3,2.2v.2c0,.2,0,.4,0,.8ZM35.1,122.6c-.3.5-.4,1.2-.4,2.2v.8c.5-.4.8-.7,1.1-.9,1.4-1,2.1-1.9,2.1-2.5-.3,0-.7.1-1.3.3-.6.1-1,.2-1.3.3.1-.2.3-.4.6-.5.3-.1.7-.3,1.2-.4.5-.1.7-.3.7-.6,0-.4-.1-.8-.3-1l-.5.3c-1,.9-1.6,1.5-1.9,2ZM39.2,98.4c-2.1,1.2-3.6,2.3-4.4,3.3h.3l3.6-1.4c.2,0,.4-.2.5-.5,0-.3.1-.6.1-.9v-.6ZM35.6,90.7l-.3.3h.3v-.3ZM36.4,119.5c-.4.2-.7.4-1,.4v-.2c0-.1,0-.2,0-.3.1,0,.3-.2.6-.3.3-.1.6-.3.9-.4,0,.3-.2.6-.5.8ZM37.2,111.1c.5-.2,1.1-.5,1.9-1,1.1-.7,2-1.1,2.6-1.2l7.7-5.5.8-.8c-3.2,1.8-5.9,3-8.1,3.6l-6.6,5.3c.6,0,1.1-.1,1.6-.3ZM37,105.2c-.6.4-1.1.7-1.5.7.3-.4.6-.8,1.1-1.2.5-.4.9-.6,1.3-.6,0,.3-.3.6-.9,1ZM37,108.2c-.8.3-1.1.5-1.2.5.9-1.2,1.7-1.8,2.3-1.8,0,.6-.4,1-1.1,1.3ZM37.5,114.5c.5-.3.7-.7.9-1.2-.5.3-1,.6-1.4,1-.5.4-.7.6-.7.6.4,0,.9-.2,1.3-.5ZM37.8,89.6c-.3.1-.6.3-.8.4s-.4.3-.6.6l.3.3c.3,0,.8-.2,1.3-.5.5-.4.7-.7.7-1.1-.3.1-.5.3-.9.4ZM40.9,104.6c-.2.5-.4.9-.5,1.3.3-.1.7-.3,1.4-.4.7-.2,1-.2,1.1-.2h.3c0,0,5.9-2.7,5.9-2.7-2.7,0-5.2.4-7.2,1.1-.3.2-.6.5-.8.9ZM47.5,108.4c.1,0,.6-.3,1.4-.9.3-.2.7-.4,1.3-.8.5-.4,1-.6,1.3-.7h-.3c-.6,0-1.2.1-2,.5-.9.3-1.5.5-1.9.6,0,0,.4-.4,1.3-.8.9-.5,1.8-.9,2.7-1.3,1-.4,1.7-.6,2.4-.6h.4c0-.3-.2-.6-.7-.8-.5-.2-.9-.4-1.3-.4-.7,0-1.9.7-3.7,2-1.8,1.3-3,2.4-3.7,3.3h3ZM49.1,108.4h.6l6.4-2.2c-.1-.3-.3-.6-.6-1-.3-.4-.5-.6-.7-.7,0,0-1,.6-3,1.9l-2.1,1.4-.6.6ZM50.4,109.4c.3.2.6.4.8.4.4,0,1-.3,1.7-.8.8-.6,1.3-1,1.5-1.4h-.3c-.5,0-1.2.1-2.2.5-1,.3-1.7.6-2.3.9.1,0,.4.2.7.5ZM57,109.3c0,.4-.1.7-.4,1-.3.3-.6.5-1.2.8-.5.3-.9.6-1.2.9-.3.3-.5.7-.5,1.1.6,0,1.2-.2,1.9-.6.7-.3,1.3-.5,1.8-.5.2,0,.3.2.3.5s-.1.7-.4.9c-.3.2-.7.5-1.2.8-.6.3-1,.6-1.3.9-.3.3-.5.6-.5,1.1.9,0,1.8-.2,2.8-.6,1-.4,1.5-1,1.5-1.6,0-3.1-.8-5.6-2.3-7.5,0,.5-.3.9-.7,1.2-.4.3-1,.7-1.8,1.2-.6.4-1.1.7-1.4.9-.3.2-.4.5-.4.8h1l-.6.5c0,.1.2.3.4.5.2.2.4.3.5.4.3,0,.5-.1.7-.3.2-.2.5-.5.8-.9.3-.4.5-.7.6-.7h-.7c-.5,0-.9.2-1.2.6,0-.9.9-1.4,2.6-1.4h.8ZM54.4,114.7c.2-.3.6-.6,1.1-.9.6-.6,1-.9,1.2-1-.4,0-.9.1-1.6.4-.7.3-1,.6-1,.9s.1.6.3.6ZM55.3,128.1c-.5.2-.8.6-.9,1.2-.1.6-.2,1.6-.2,3.2.3-.2.8-.5,1.6-1.1.8-.5,1.4-.8,1.7-.8l.9-1.2c-.4,0-1,.1-1.8.4-.8.2-1.4.5-1.8.8v-.3c0-.4.1-.7.5-1,.3-.3.8-.5,1.5-.8.3-.1.7-.3.9-.5.3-.2.4-.3.4-.5v-.3c-1.3.3-2.2.6-2.7.8ZM54.3,134.8c0,.2.1.4.1.6.2-.2.6-.5,1.4-1,.9-.5,1.5-1,2.1-1.4.5-.4.8-.8.8-1.1-1,0-2,.2-3,.5-1,.4-1.5.9-1.5,1.7s0,.4.1.6ZM59.1,121c0,0-.1,0-.2,0-1.5.7-2.7,1.6-3.6,2.5,0,0-.1,0-.2-.2,0-.3.1-.6.4-.8.3-.2.7-.5,1.3-.7.6-.3,1.1-.6,1.4-.8.3-.3.5-.6.5-1v-.3c0,0-3.6,1.1-3.6,1.1v-.3l3.5-1.7v-1.9c-1,.4-2.3,1.5-3.8,3.3-.2.7-.3,1.3-.3,2,0,.6,0,1.3,0,2,0,2,.1,3,.4,3h.3c.1-.6.4-1,.7-1.4.3-.3.8-.8,1.5-1.3.6-.4,1-.8,1.4-1.2-.3,0-.7,0-1.3.3-.5.2-.9.3-1.2.3.3-.4.9-.7,1.5-1,.5-.2.9-.4,1.1-.6.2-.2.4-.5.4-1s0,0,0-.2ZM55.9,117.7c.6-.5,1.3-1,2.1-1.6v-.4c-.3,0-.9.1-2,.4-1.1.3-1.6.5-1.6.8v2.5c.4-.7.9-1.3,1.5-1.8ZM55.8,127.3c.6,0,1.2-.2,1.8-.5.6-.2.9-.5.9-.7v-1.9c-.8.5-1.5,1-2.1,1.7-.6.6-.9,1-1,1.1.2.2.3.3.3.3ZM56.9,131.2c-.6.3-1.1.7-1.4,1.1.2,0,.5-.1,1.1-.3.5-.1,1-.3,1.4-.5.4-.2.5-.5.5-.8-.4,0-1,.2-1.6.5ZM59.2,134.9c0-.3,0-.6,0-1s-.1-.6-.2-.6h-.3l-2.2,1.4c1,0,1.8.4,2.5.8.2,0,.3-.2.3-.5v-.3ZM58.7,128.3c-.4,0-.7.2-1,.7.6-.1,1-.4,1-.7Z"/>
            </g>
            <g class="cls-2">
              <path class="cls-1" d="M70.5,127.9c.5-3.1.8-4.9,1-5.2v-16.4c0-.3,0-.8,0-1.3,0-.5.1-.9.2-1.3v-1c-.5,0-1.2.2-1.9.6-.3.2-.6.3-.9.5-.3.1-.5.2-.8.2-.8,0-1.2-1.6-1.2-4.9v-3.7c.6,0,1.4-.4,2.6-1.2,1.2-.8,2.4-1.7,3.5-2.9,1.2-1.1,2-2.2,2.5-3.2,1,0,2.3.1,4,.4,1.7.3,2.6.5,2.6.7.2.9.3,1.8.3,2.8s-.1,1.9-.3,3.1c-.2,1.4-.3,2.4-.3,3s0,1.7.1,2.6c0,1,.2,1.7.2,2.1.2,1.7.3,3.3.3,4.7s0,2-.1,3.7c-.1,1.3-.2,2.6-.2,3.8s0,1.4.1,2.6c.1.9.2,1.8.2,2.8,0,9.6-.5,14.4-1.5,14.4l-.8-.3c-1.5,0-3.1.1-5,.3-2.1.2-3.6.3-4.5.3s-.8,0-.9-.2-.2-.3-.2-.6v-.5c0-.9.2-2.9.7-6ZM71,94.6c-.8.3-1.4.7-1.8,1-.4.3-.6.9-.6,1.5h.7l5-3c-.4,0-.8,0-1.4.3l-.3-.6c-.2.2-.7.4-1.5.8ZM76.1,97.3c-1.9.5-3.6,1.1-5.1,2-1.5.8-2.2,1.7-2.2,2.6.3,0,1-.2,2-.6s1.9-.8,2.8-1.3c1.7-.8,2.7-1.2,2.9-1.2.8-.2,1.7-.5,2.7-1.1,1-.5,1.4-.9,1.4-1.2-1,0-2.5.2-4.4.7ZM70.2,98.9c.6-.2,1.2-.5,1.5-.7.1,0,.5-.4,1.1-1,.6-.6,1.2-1.1,1.7-1.5.5-.4,1-.6,1.4-.6s1.2-.3,2.2-.8c.9-.5,1.4-.9,1.4-1.1-.6,0-1.7.4-3.5,1.2-1.8.8-4.1,2-7,3.8v1.2c.2,0,.6-.2,1.2-.5ZM75.1,131.9v.9l1.4-.6c0,.2,0,.4-.2.5-.1.1-.4.2-.7.4-.4.1-.6.3-.7.5h.7c.7,0,1.6,0,2.8-.2,1.2-.1,1.8-.3,1.8-.4v-2c-.2.3-.5.5-1,.7-.5.2-.8.4-1,.5l-.3-.3c.3-.2.6-.5,1.1-.8.5-.3.8-.7,1-1,.2-.3.4-.7.4-1.3-2.4,1.2-5.2,1.7-8.4,1.7l-.5,2.8.5.6,3.1-2ZM72.5,127.8c.6,0,1.4-.1,2.3-.4.9-.3,1.4-.6,1.7-1l3.6-1.7-.3-.3-3.3.5v-.3c0,0-.5.2-1.2.4-.7.2-1.4.3-2.1.5-.4.6-.6,1.3-.6,2.3ZM73.3,129.3c1.1,0,2.6-.2,4.4-.6,1.8-.4,2.7-.9,2.7-1.4v-1.1l-7.9,3h.8ZM73.2,109.6c0,.9.1,1.6.2,2h.3l5-2.2c0-.2.3-.3.5-.5.3-.2.5-.3.5-.3-.5,0-1,0-1.6.3-.6.2-1,.3-1.2.3-1.1.4-2,.6-2.6.6s-.4-.1-.4-.3c.9-1.6,3-2.9,6.1-3.9l.3-.3c-.8,0-2.2.4-4.2,1-2,.6-3.1,1.1-3.1,1.6s0,.9,0,1.8ZM78.6,122.3c-.6.3-1.2.5-1.9.7-.7.2-1.1.4-1.3.5-.3.1-.7.3-1.3.5-.5.2-.9.3-1.1.5h.6c.6,0,1.9-.2,3.9-.5,2-.3,3.1-.6,3.1-.6v-3.9c-.4,0-1.3.3-2.6.9-1.4.6-2.1,1.1-2.3,1.4,1.4-.5,2.5-.8,3.3-.8s.5.2.5.6-.3.5-.9.8ZM73.1,123.2c.3,0,.9-.2,1.6-.4.7-.2,1.3-.4,1.7-.7l-3,.6c-.2,0-.3.2-.3.5ZM73.4,113.7v.5c1.4,0,3.5-.9,6.1-2.6-.6,0-1.2.1-2.1.4-.8.3-1.3.4-1.4.5-1.1.3-1.9.6-2.3.6-.2,0-.3.3-.3.6ZM76.6,116.8c1.8-.8,2.7-1.3,2.9-1.6-.3,0-1.2.1-2.4.4-.2,0-.7.2-1.5.3-.8.2-1.5.3-2.1.3v1.8c.3,0,1.4-.4,3.2-1.2ZM76.3,118.9c-1.5.3-2.5.5-2.8.7v2l5.8-2.5c0-.1.3-.3.5-.4.3-.2.4-.3.5-.4-1.1.1-2.4.3-3.9.6ZM75.4,100.5c-1.2.4-1.7.7-1.7,1.1v3.9l1.5-.8c2.3-1.1,3.5-1.8,3.5-2.1-.9,0-1.8,0-2.9.2-1.1.1-1.6.2-1.8.2,0-.6.2-1,.6-1.3.4-.3,1-.6,1.7-.8.4-.1.7-.3,1-.5.3-.2.5-.4.5-.6-.5,0-1.3.2-2.4.5ZM79,114.7l1.4-.3.3-2.8c-.2.3-1.7,1.2-4.4,2.4-.4.2-.8.4-1.2.6-.4.2-.9.4-1.3.6v.3c1.1,0,2.9-.3,5.3-.8ZM74.3,112.4c0,0,.1.1.2.1.5-.2,1.4-.5,2.5-.9,1.2-.4,2.1-.6,2.7-.8h.6c0-.1,0-.2,0-.3,0-.4-.2-.6-.7-.6s-1.1.2-2.1.7c-1,.5-1.6.8-1.8.8-.4.3-1,.5-1.6.8,0,0,0,.1.1.2ZM74.8,118.6c.3,0,1.2-.2,2.6-.5,1.5-.3,2.4-.5,3-.7v-1.7c-.5.1-2.6,1.1-6.2,2.8h.6ZM79.7,90.5c-.3.5-.6.8-.8.8l-1.8.9c-.9.5-1.8.9-2.6,1.3h.3c.6,0,1.6-.1,2.9-.5,1.2-.4,2.1-.6,3-.6l.3.3v-1.4c0,0-.2,0-.3-.2-.1-.1-.2-.3-.2-.4s0-.3,0-.5c0-.2,0-.3,0-.5-.2,0-.5.2-.8.7ZM77.9,95.3c-1.8.8-2.8,1.4-3.1,1.8l1.7-.4c1.4-.3,2.5-.6,3.3-1,.8-.4,1.2-.9,1.3-1.7-.3,0-1.4.4-3.2,1.3ZM78.2,104.1c-1.2.7-2.4,1.3-3.4,1.7.7,0,1.9-.3,3.5-.8.3,0,.6-.2,1-.3.4-.1.8-.2,1.4-.3,0-.6,0-1.6-.1-2.9-.1-1-.2-2-.2-2.9v-.9c-.1,0-.5.3-1.1.5-.6.3-1,.6-1.4.9l1.9.3v.8c-.7.2-1.4.6-2.2,1-.4.3-1,.6-1.7.9.4,0,1,0,1.8-.1.8,0,1.4-.1,1.8-.1s.6.2.6.5c0,.4-.6,1-1.9,1.7ZM76.4,90.5c-.2.6-.4,1-.5,1.4,1.7-.6,2.8-1.2,3.3-1.9-.7-.2-1.5-.3-2.3-.3s-.4.3-.6.8ZM78,107.2c-.9.5-1.5.9-1.8,1.3,0,0,.8-.1,2.2-.5,1.4-.3,2-.6,2-.6v-1.4c-.7.3-1.5.6-2.4,1.1Z"/>
              <path class="cls-1" d="M113,115.4c.3.2.5.5.7.7.2.2.3.5.3.8,0,.6-.3,1.2-.9,2-.4.5-.7.9-.8,1.3l-10.6,10.2h-5.3c0-.1-.2-.2-.7-.3-.5,0-.8,0-.9,0-1,0-1.8,0-2.4-.2-.6-.2-.9-.5-.9-1s.6-1.5,1.9-3.1,3-3.6,5.2-6c2.1-2.3,3.2-3.6,3.3-3.9l-3.2-3.9c-1.7-2.1-3-3.6-3.8-4.7l-1.4-1.3c-1.5-1.4-2.2-2.1-2.2-2.3,0-.8,1.3-1.2,4-1.2s1,0,1.4,0c.3,0,.7,0,1.1,0h1.9c.3,0,.7,0,1.1.3.4.2.5.5.5.8,0,.3.4.6.9,1,.5.4.8.8,1.1,1l9,9.1c.1.1.3.3.6.5ZM94,128.5h1.4l-1-.5-.3.5ZM95.7,105.8c.5.6,1,1.1,1.4,1.4.4.3.8.6,1.2.7.3,0,1,.3,2.3.7,1.3.4,1.9.6,1.9.7h.3l-.3-.3c-.3-.3-1.3-.8-2.7-1.2-1.5-.5-2.2-.7-2.2-.8,0,0,0-.2.2-.4.1-.2.2-.3.2-.3.8,0,1.7.2,2.9.6.2,0,.6.1,1.1.3.5.1.9.2,1.3.2-.6-.8-1.8-1.5-3.5-2.1-1.7-.6-3.1-.9-4.2-.9s-.5.1-.6.3c0,0,.4.4,1,1.2ZM97.3,128.3c1,.3,1.8.6,2.3.8,0-.1-.1-.3-.4-.5-.2-.2-.5-.5-.8-.7-1.1-.9-1.7-1.6-2-2.1l-1.6,1.7c.8.4,1.6.7,2.4.9ZM102.1,126.5c-.3-.2-.7-.6-1.3-1.1-.6-.5-1.2-1-1.6-1.4-.5-.4-.7-.8-.7-1.2-.6.4-1,1-1.4,1.9l5,1.7ZM101.8,127.6c0-.3-.5-.7-1.5-1.1-1-.4-1.8-.7-2.3-.8.4.6,1,1.3,1.6,2,.6.7,1.1,1,1.4,1l.8-1.1ZM99.2,121.5c-.3.4-.5.8-.5,1.2,3.2.7,5,1.2,5.5,1.4,0,0-.5-.6-1.5-1.6-.9-1-1.8-1.5-2.4-1.5s-.7.2-1.1.6ZM100.2,111.1c.2.4.4.6.6.7.3.1,1.1.3,2.4.6h.3l-3.6-1.9c0,0,.1.3.3.7ZM103.6,110.1c-1.6-.5-2.7-.7-3.4-.8.6.6,1.2,1.1,1.9,1.5.7.4,1.8.8,3.2,1.3,1.3.4,2.4.8,3.2,1.3-.2-.4-.4-.9-.7-1.3-.3-.5-.6-.7-.9-.9-.6-.3-1.6-.7-3.2-1.1ZM103.9,125.9c.2-.3.3-.6.4-.9,0-.2-.5-.5-1.5-.8-1-.3-1.8-.5-2.2-.5h-.5l3,2.5c.3,0,.5-.1.7-.4ZM101.7,119c-.2.2-.3.4-.5.9.6.4,1.6.9,2.8,1.3,1.2.4,2.1.6,2.7.6-.2-.2-.9-.8-2.2-1.7-1.3-.9-2-1.4-2.3-1.4s-.5,0-.6.2ZM103.3,114.8c.8.4,1.4.6,1.8.6l-1.1-1-2.1-1c.1.5.6.9,1.4,1.3ZM106.9,122.9c-.4-.3-1.2-.7-2.3-1.1-1.1-.5-2-.7-2.7-.7l3.6,2.8h.3c.4,0,.8-.3,1.2-1ZM103.2,116.6v1c0,0,.5,0,1.2.3.7.2,2,.6,3.8,1.2,0,0-.2-.1-.5-.3-.3-.2-.6-.3-.8-.5-1.4-.7-2.4-1.2-3.1-1.7h-.6ZM112.1,117.3c0-.6-.5-1.2-1.6-1.9-1.1-.7-2.2-1.2-3.4-1.6v.5c-.4,0-1.2-.2-2.2-.5-.1,0-.4-.1-.7-.3-.4-.1-.7-.2-1-.3v.3c1.4.5,2.6.9,3.7,1.4,1,.5,1.8,1,2.4,1.6,0,0,.1.1.2.3,0,.1.2.2.3.2s.2,0,.3-.1c.3.2.5.4.8.7.3.3.5.4.6.4s.4-.2.6-.6ZM111.3,118.7c-.5-.5-1.1-.8-1.7-1.1s-1.5-.5-2.4-.8c-.2,0-.6-.2-1.4-.5-.7-.3-1.4-.6-2-.9.4.6.8,1,1.4,1.3.5.3,1.2.5,2,.8.8.3,1.5.6,2,.9.5.3.9.7,1.3,1.2l.9-.8ZM109.6,120.4c-1.2-.5-2.5-.9-3.7-1.2-1.2-.3-1.9-.5-2.2-.5.8.6,1.6,1.2,2.6,1.8,1,.7,1.5,1,1.7,1.1,0,0,.5-.4,1.5-1.2Z"/>
            </g>
          </g>
          <g class="cls-2">
            <g class="cls-2">
              <path class="cls-1" d="M209.9,111.5l-3.2,3.9c.2.3,1.3,1.6,3.3,3.9,2.2,2.4,3.9,4.4,5.2,6,1.3,1.6,1.9,2.6,1.9,3.1s-.3.8-.9,1c-.6.2-1.4.2-2.4.2s-.4,0-.9,0c-.5,0-.7.1-.7.3h-5.3l-10.6-10.2c0-.4-.3-.8-.8-1.3-.6-.8-.9-1.4-.9-2s.1-.6.3-.9.5-.5.7-.7c.3-.2.5-.4.6-.5l9-9.1c.2-.2.6-.5,1.1-1,.5-.4.8-.8.9-1,0-.3.2-.6.5-.8s.7-.3,1.1-.3h1.9c.4,0,.8,0,1.1,0,.3,0,.8,0,1.4,0,2.7,0,4,.4,4,1.2s-.7.9-2.2,2.3l-1.4,1.3c-.8,1.1-2.1,2.6-3.8,4.7ZM197.2,117.4c.2,0,.4-.1.6-.4s.5-.5.8-.7c0,0,.2.1.3.1s.2,0,.3-.2.2-.2.2-.3c.6-.6,1.4-1.1,2.4-1.6,1-.5,2.3-.9,3.7-1.4v-.3c-.3,0-.6.1-1,.3-.4.1-.6.2-.7.3-1,.3-1.8.5-2.2.5v-.5c-1.2.4-2.3.9-3.4,1.6-1.1.7-1.6,1.3-1.6,1.9.2.4.4.6.6.6ZM199.7,117.8c.5-.3,1.1-.6,2-.9.8-.3,1.4-.5,2-.8.5-.3,1-.7,1.4-1.3-.6.3-1.3.6-2,.9-.7.3-1.2.4-1.4.5-1,.3-1.8.6-2.4.8-.6.3-1.2.6-1.7,1.1l.9.8c.4-.5.8-.9,1.3-1.2ZM200.7,121.1c.2,0,.7-.4,1.7-1.1,1-.7,1.8-1.3,2.6-1.8-.2,0-.9.2-2.2.5-1.2.3-2.5.7-3.7,1.2,1.1.8,1.6,1.2,1.5,1.2ZM201.1,111.6c-.3.5-.6.9-.7,1.3.8-.5,1.9-.9,3.2-1.3,1.4-.5,2.4-1,3.2-1.3.7-.4,1.4-.9,1.9-1.5-.7,0-1.8.4-3.4.8-1.6.5-2.7.8-3.2,1.1-.3.1-.6.4-.9.9ZM205.6,116.1h-.6c-.6.4-1.7,1-3.1,1.7-.2.1-.5.3-.8.5-.3.2-.5.3-.5.3,1.8-.6,3.1-1,3.8-1.2.7-.2,1.2-.3,1.3-.3v-1ZM203.4,123.4l3.6-2.8c-.7,0-1.6.2-2.7.7-1.1.5-1.9.8-2.3,1.1.4.7.8,1,1.2,1h.3ZM207.1,118.4c-.2-.2-.4-.2-.6-.2s-1,.5-2.3,1.4c-1.3.9-2,1.5-2.2,1.7.6,0,1.5-.2,2.7-.6,1.2-.4,2.2-.9,2.8-1.3-.2-.4-.3-.7-.5-.9ZM205.5,114.2c.8-.4,1.3-.8,1.4-1.3l-2.1,1-1.1,1c.4,0,1-.2,1.8-.6ZM204.9,125.3c.2.3.4.4.7.4l3-2.5h-.5c-.4,0-1.2.2-2.2.5-1,.3-1.5.6-1.5.8,0,.3.2.6.4.9ZM209.6,121c-.3-.4-.7-.6-1.1-.6-.7,0-1.5.5-2.4,1.5-.9,1-1.4,1.6-1.5,1.6.5-.2,2.3-.7,5.5-1.4,0-.4-.2-.8-.5-1.2ZM208.6,110.6c.2-.4.3-.6.3-.7l-3.6,1.9h.3c1.3-.3,2.1-.5,2.4-.6.2,0,.4-.3.6-.7ZM209.4,104.7c-1.7.6-2.9,1.3-3.5,2.1.3,0,.8,0,1.3-.2.5-.1.8-.2,1.1-.3,1.2-.4,2.1-.6,2.9-.6,0,0,0,.2.2.3.1.2.2.3.2.4s-.7.3-2.2.8-2.4.9-2.7,1.2l-.3.3h.3c0-.1.6-.4,1.9-.7,1.3-.4,2-.6,2.3-.7.4-.1.8-.4,1.2-.7s.8-.8,1.4-1.4c.6-.7.9-1.1,1-1.2-.2-.2-.4-.3-.6-.3-1,0-2.4.3-4.2.9ZM210.3,122.4c0,.3-.2.8-.7,1.2-.5.5-1,.9-1.6,1.4-.6.5-1,.8-1.3,1l5-1.7c-.4-.9-.9-1.5-1.4-1.9ZM209.2,127.2c.6-.7,1.2-1.4,1.6-2-.5.1-1.3.4-2.3.8-1,.4-1.5.8-1.5,1.1l.8,1.1c.3,0,.8-.3,1.4-1ZM212.3,125.2c-.3.5-.9,1.2-2,2.1-.3.3-.6.5-.8.7-.2.2-.4.4-.4.5.5-.2,1.3-.5,2.3-.8.9-.2,1.7-.5,2.4-.9l-1.6-1.7ZM214.8,127.9l-.3-.5-1,.5h1.4Z"/>
              <path class="cls-1" d="M253,93.1l-5,11.1c0,.8-.3,1.7-.8,2.9-.4,1.1-.8,2-1.2,2.7l-.6,1.1c-3.4,6.1-6.2,11.1-8.3,15.2-2.1,4.1-3.7,7.8-4.9,11.2,0,1.1-.5,1.8-1.1,2.1-.7.3-1.8.5-3.4.5h-3.9c.1-.4.4-.8.7-1.4.4-.6.6-1.3.7-2,.3-.1,1.1-.5,2.4-1,1.3-.6,2-.9,2-1s-.1-.3-.3-.5c-.2-.2-.3-.5-.3-.7s0-.3,0-.4h-2.4c-.5.6-.9,1.2-1.3,1.8-.3.6-.6,1-.7,1.3l-.5,1.4c-.3.9-.5,1.5-.7,1.9-.2.4-.4.6-.7.6s-.5-.2-.5-.6c0-2.2,2-6.2,6.1-12,.3-.5.6-1,.8-1.7.3-.7.5-1.2.7-1.6.2-.4.5-.7.9-.9l3.7-8c1.3-2.7,2.3-4.8,2.8-6.2.6-1.4,1-2.7,1.2-3.9.4-1.2,1.2-3,2.3-5.2.9-1.7,1.5-3.1,2-4.2.5-1.1.8-2.2.9-3.4v-.6c0-.5.1-.8.3-.8h5.9c.2.1.4.2.8.2s.5,0,.8,0c.3,0,.6,0,.9,0,.7,0,1.2.3,1.4,1-.3.3-.8.5-1.4.5h-1.1c-.6,0-1.1,0-1.5.2-.4.2-.8.2-1.3.2l.2-.6c-.8,0-1.4,0-1.9,0-.4,0-1,.2-1.7.5.2,0,.4.2.8.2.3,0,.6,0,.6.1,0,0,.2,0,.4-.2.2-.1.3-.2.4-.2.2,0,.8.2,1.7.6.9.4,1.4.7,1.4.8,0,.3-.9.7-2.8,1.3-1.9.5-3,.8-3.4.8v.6c0,.1.5.2,1.4.2s1.4,0,1.9.2c.5.1.7.4.7.8s-.4.6-1.3.8c-.9.2-1.8.3-2.9.3.3.2.8.4,1.5.5.8,0,1.4.3,1.6.8-.6.4-1.3.8-2,1-.7.2-1.8.4-3.3.5l-.3.5c0,0,.4.2,1.1.3.7.1,1.1.2,1.4.3,1.2.2,1.7.3,1.7.4,0,.2-.3.4-.9.6-.6.2-1.3.4-2,.6-1.8.4-2.8.8-2.8,1.1v.5c.3-.1.8-.2,1.7-.2,1.8,0,2.8.3,2.8.8s-.2.4-.6.5c-.4.2-1,.4-1.9.6-1,.3-1.9.5-2.5.8-.7.3-1.1.6-1.3,1,.5,0,1,0,1.5.2.5,0,1.1.1,1.6.2l2.2.3c.1,0,.4-.5.8-1.3.4-.8.6-1.3.8-1.5l.6-1.4c.2-.5.4-1,.5-1.6.2-.8.3-1.3.4-1.4.9-2.1,2-4.4,3.2-6.9s2-3.7,2.3-3.7c.6,0,.9.1.9.3ZM229,138.7c.5-.1,1-.4,1.4-.9.4-.5.8-1.3,1.2-2.4-2.2,0-4.3.7-6.1,2,0,.1.2.3.4.5.2.2.4.3.5.3h.5c0-.1,0,.6,0,.6.9,0,1.7,0,2.2-.2ZM228.3,131.4c.2-.2.4-.5.5-.9.1-.3.3-.5.5-.7.2-.2.4-.4.7-.5,1.9-.7,2.9-1.1,3-1.1-.4,0-.9,0-1.4-.3-.5-.2-.8-.3-.9-.3-.4,0-.8.3-1.2.8-.4.5-.9,1.2-1.3,1.9-.5.7-.7,1.1-.8,1.1v.3c.4,0,.7-.2.9-.4ZM231.9,133.6c.3-.2.5-.5.5-.8l-2.5.6s.2,0,.5,0c.3,0,.5.2.5.5.3,0,.6-.1,1-.4ZM234.3,129h-.4c-.5,0-1.2.2-2.1.8-.9.6-1.4,1.1-1.6,1.6l2.4.4c.8-.5,1.4-1.4,1.7-2.8ZM235.5,125.6c-2.1,0-3.8.5-5,1.4.3,0,.8,0,1.3,0,.5,0,.9.1,1.3.2l1.9.3.6-2ZM231.5,124.7c-.2.3-.4.6-.4.9.2,0,.6-.1,1.3-.3.6-.1,1.1-.3,1.4-.5-.2-.4-.7-.6-1.4-.6s-.6.2-.9.5ZM236.6,123.9c.1-.2.2-.5.2-.7s-.3-.3-.8-.3-1.1,0-1.9.2c-.7.1-1.2.2-1.4.2l3.6.9c0,0,.2-.1.3-.3ZM236.8,121.9c.1,0,.2-.1.4-.2-1-.2-1.8-.3-2.4-.3s-1,0-1.3.2c-.3.1-.5.5-.5,1,.5,0,1.1-.1,1.8-.3.7-.1,1.3-.2,1.8-.3,0,0,.1,0,.2,0ZM238.3,120c.1-.3.2-.5.2-.6,0-.2-.2-.3-.5-.3-.4.1-1.1.3-1.9.6-.8.3-1.4.5-1.8.7.6.2,1.5.3,2.7.3h.9c0-.2.2-.4.4-.7ZM234.6,119.3l1.3-.5,2.4-.8c-.2-.2-.6-.3-1.2-.3h-1.9c-.4.3-.6.8-.6,1.5ZM241,115c-.9,0-2,.2-3.4.5s-2.1.8-2.2,1.4c.2,0,.8.2,1.7.3,1,.2,1.7.3,2.1.3s.3-.3.8-1c.5-.6.8-1.1.9-1.2v-.3ZM236.5,114.7c0,.3-.2.5-.3.7l3.3-.8-2.8-.3c-.1,0-.2.1-.3.4ZM237.6,111.9c-.2.5-.3.9-.4,1.2,2.9-1.3,4.4-2.1,4.4-2.2-.9,0-2.2-.1-3.7-.3,0,.3-.2.8-.4,1.3ZM242.2,112.9c.4-.5.5-.9.5-1.2-.3.1-1.1.4-2.1.8-1.1.4-2,.7-2.6.8.3,0,.7,0,1.1,0,.5,0,.8,0,1.2.2.3.1.6.3.8.6.4-.4.8-.8,1.1-1.4ZM239.6,107l-.6,1.5,4.3-1.5h-3.6ZM240.7,104.7l2.8-.8.2-.3-1.8-.3c-.8,0-1.2.5-1.2,1.4ZM242.1,101.5c.2,0,.7-.2,1.4-.5.8-.3,1.4-.4,1.9-.4h.3c.1,0,.3,0,.5-.3h-2.3v-.3h-1.1l.6.3c-.9,0-1.4.4-1.4,1.2ZM243.9,97.8c-.1.2-.2.4-.2.9.3,0,.8,0,1.5-.2.7,0,1.3-.2,1.8-.4-.3-.1-.8-.3-1.4-.4-.6-.1-1.1-.2-1.5-.2s-.2,0-.3.2ZM245,94c-.3.2-.4.5-.5.9,0,.4-.1.6-.3.7,0,0,0,.2.1.2,0,0,.1.1.2.2.6-.3,1.5-.6,2.6-.9,1-.2,1.6-.4,1.9-.5-.3-.6-1.1-.9-2.4-.9s-1.4.1-1.6.3Z"/>
            </g>
            <g class="cls-2">
              <path class="cls-1" d="M288.2,129.3c0,.8.1,1.4.2,1.7.2,1.4.3,2.6.3,3.7,0,1.6-.3,2.4-1,2.4s-.3,0-.5-.3c-.2-.2-.4-.3-.4-.3h-4.7c-.3.2-.6.3-.8.3-.4,0-.8-.1-1.1-.4-.4-.2-.5-.5-.5-.9s0-.3.2-.5c.1-.3.2-.4.3-.5.5-3.6.8-7.2.8-10.9s-.1-5.9-.4-7.7-.9-3.3-1.8-4.3c-.9-1-2.4-1.5-4.4-1.5s-4.5,1.1-6.1,3.3v.4c0,.3-.1,1-.5,1.9-.5,1.3-.8,2.3-.8,3.2s.2,2.1.5,3.6c0,.3.1.7.3,1.4s.2,1.3.2,1.9c.2,1.5.3,2.7.3,3.4,0,.7,0,2,0,4s-.3,3.3-1,3.3l-7-.6.2-3.3v-2.3c.1-.2,0-1.1-.2-2.8,0-.9.1-1.9.3-3.1.2-1.3.3-2.3.3-3-.9-6.5-1.4-11.4-1.4-14.8s0-1.3.1-2.3c0-1.1.1-1.9.1-2.4s0-1.5-.1-2.6c0-1.1-.1-2-.1-2.5s0-.7.1-1.2c0-.6.1-1,.1-1.4,0-1.1-.4-2.6-1-4.5l-.5-1.9c0,0,.1-.2.3-.2s.2,0,.3,0c.1,0,.4,0,.8.3.4.2.9.3,1.4.3l1.1-.2h5.3l.3.2c0,.3.1,1.4.4,3.2.5,2.9.8,5.2.8,6.9s0,1.1-.1,2c0,.9-.1,1.6-.1,2.1,1,0,2.3-.2,3.9-.7.2,0,.8-.2,1.6-.4.9-.2,1.7-.3,2.4-.3,1.2,0,2.6.3,4,.8,1.4.5,2.5,1.2,3.2,2,1.2,1.5,2.2,2.8,2.7,3.9.6,1.1.9,2.2,1.1,3.1.1.9.2,2.2.3,3.7,0,.9,0,1.6,0,2.1.4,2.7.6,4.3.6,4.7,0,.9-.1,1.9-.3,3.1-.2,1.3-.3,2.2-.3,2.8s0,1.4.1,2.2ZM261.2,91.5l1.9-1.4c.2,0,.4-.1.6-.4.2-.2.4-.4.5-.5h-3.9l.9,2.2ZM261.6,92.4c-.3.1-.4.3-.4.6l.3,1.4c.9-.3,1.9-1.2,2.9-2.5-.4,0-1,.2-1.8.6,0-.2,0-.3-.3-.3s-.5,0-.7.2ZM266.1,97.1c.6-.2,1-.4,1.2-.5,0-.3,0-.8-.3-1.4-.7.3-1.1.6-1.1.7,0,.1-.1.3-.3.5s-.7.5-1.5.9c-.9.5-1.5.9-2,1.2-.5.3-.7.8-.7,1.2,0,.7.1,1.3.3,1.6,2.3-1.3,3.9-2.5,4.8-3.5h-1.5c-.3,0-.6,0-.8,0,.6-.2,1.3-.4,1.8-.6ZM261.7,111.6h.3c0,0,.9-.6,2.4-1.6,1.5-1,2.3-1.7,2.3-2.1,0,0-.2-.2-.2-.3,0-.1,0-.2,0-.3,0-.1,0-.3.1-.5,0-.2.1-.4.1-.6v-.4c-.2,0-.8.4-1.7,1.2l-1.6,1.2c0,.4,0,.6-.3.6s-.2,0-.3,0c-.1,0-.2,0-.3,0v-.4c0-.4.5-.9,1.5-1.4.8-.5,1.4-1,1.8-1.4.4-.4.6-.9.6-1.6v-.9l-1.6,1.3c-.5.4-1,.8-1.5,1.2-.5.4-.9.5-1.2.5,0-.5.1-.8.3-1.1.2-.2.5-.5,1-.7.7-.3,1.1-.7,1.4-1l.2.3c.1-.3.4-.7.9-1.3.5-.5.7-.9.8-1-.5,0-1.1.1-1.7.4-.6.3-1.2.5-1.8.8-.5.3-.9.5-1.1.5-.5.3-.7.9-.7,2v1.1c0,.8.2,2.6.3,5.5ZM265.6,94c.2,0,.4-.2.6-.2.2,0,.4-.1.5-.2,0,0,.1-.3.1-.6,0-.6,0-1.1-.3-1.7-1.5,1-3.1,2.5-5,4.4v2.4l2.8-1.9c.2-.2.5-.4,1-.8.7-.4,1.2-.8,1.4-1.2v-.3h-1.1ZM263.8,114.5c.6-.6,1.6-1.4,2.9-2.5.9-.7,1.4-1.1,1.5-1.2-.6,0-1,0-1.4.2-.4.2-.8.4-1.3.7-.6.4-1.1.7-1.5.8-.8,0-1.3,0-1.6.3s-.4.7-.4,1.4v1.7c0,1.5.2,2.6.6,3.3.6-1.1.9-1.8,1.1-1.9.2-.1.5-.3.8-.4.3-.2.6-.3.8-.5.2-.2.3-.5.3-.8-.4,0-.8.1-1.4.3-.6.2-1,.3-1.3.3,0-.4.3-.9.9-1.4ZM262.5,133.9c0-.4.2-.8.5-1.2.4-.4.8-.8,1.2-1.1.5-.4.8-.6.9-.7.5-.3.9-.7,1.3-1-.3,0-.6,0-1.2.2-.5.1-.9.2-1.1.2.8-.7,1.4-1.1,1.9-1.1v-1.5c-.4.5-.9,1-1.6,1.5-.7.6-1.2.9-1.4,1v-.6l2.8-2.8v-.8c-.2,0-.4,0-.6.2-.2.2-.3.3-.3.5-.2,0-.5.2-1,.2-.4,0-.7,0-.9,0,.1-.4.3-.7.5-.8.2-.2.5-.3.9-.5.5-.1.8-.3,1-.5.2-.2.3-.7.3-1.4-.5,0-1.2.6-2.2,1.6-.9,1-1.4,1.8-1.4,2.5v7.2l4.2-.3c0-.4,0-.8-.2-1-.2-.2-.3-.5-.4-.7-.2.6-.6.9-1.1,1.1-.5.2-1.2.3-1.9.3.3-.3.9-.7,1.8-1.2.9-.5,1.5-.7,1.8-.7v-1.2c-.5,0-.9.1-1.2.4-.3.3-.6.6-1,1.1-.3.3-.5.6-.8.9-.3.3-.6.4-.9.5,0,0,0-.2,0-.4ZM262.6,120.6c0,.3.2.7.3,1,1.5-.8,2.2-1.6,2.2-2.5s0-1.3-.3-1.6l-2.3,2.2v.2c0,.2,0,.4,0,.8ZM262.9,122.7c-.3.5-.4,1.2-.4,2.2v.8c.5-.4.8-.7,1.1-.9,1.4-1,2.1-1.9,2.1-2.5-.3,0-.7.1-1.3.3-.6.1-1,.2-1.3.3.1-.2.3-.4.6-.5.3-.1.7-.3,1.2-.4.5-.1.7-.3.7-.6,0-.4-.1-.8-.3-1l-.5.3c-1,.9-1.6,1.5-1.9,2ZM267,98.5c-2.1,1.2-3.6,2.3-4.4,3.3h.3l3.6-1.4c.2,0,.4-.2.5-.5s.1-.6.1-.9v-.6ZM263.4,90.8l-.3.3h.3v-.3ZM264.3,119.6c-.4.2-.7.4-1,.4v-.2c0-.1,0-.2,0-.3.1,0,.3-.2.6-.3s.6-.3.9-.4c0,.3-.2.6-.5.8ZM265,111.2c.5-.2,1.1-.5,1.9-1,1.1-.7,2-1.1,2.6-1.2l7.7-5.5.8-.8c-3.2,1.8-5.9,3-8.1,3.6l-6.6,5.3c.6,0,1.1-.1,1.6-.3ZM264.9,105.3c-.6.4-1.1.7-1.5.7.3-.4.6-.8,1.1-1.2.5-.4.9-.6,1.3-.6,0,.3-.3.6-.9,1ZM264.8,108.3c-.8.3-1.1.5-1.2.5.9-1.2,1.7-1.8,2.3-1.8,0,.6-.4,1-1.1,1.3ZM265.3,114.7c.5-.3.7-.7.9-1.2-.5.3-1,.6-1.4,1-.5.4-.7.6-.7.6.4,0,.9-.2,1.3-.5ZM265.6,89.7c-.3.1-.6.3-.8.4s-.4.3-.6.6l.3.3c.3,0,.8-.2,1.3-.5.5-.4.7-.7.7-1.1-.3.1-.5.3-.9.4ZM268.7,104.7c-.2.5-.4.9-.5,1.3.3-.1.7-.3,1.4-.4.7-.2,1-.2,1.1-.2h.3c0,0,5.9-2.7,5.9-2.7-2.7,0-5.2.4-7.2,1.1-.3.2-.6.5-.8.9ZM275.3,108.5c.1,0,.6-.3,1.4-.9.3-.2.7-.4,1.3-.8.5-.4,1-.6,1.3-.7h-.3c-.6,0-1.2.1-2,.5-.9.3-1.5.5-1.9.6,0,0,.4-.4,1.3-.8.9-.5,1.8-.9,2.7-1.3,1-.4,1.7-.6,2.4-.6h.4c0-.3-.2-.6-.7-.8-.5-.2-.9-.4-1.3-.4-.7,0-1.9.7-3.7,2-1.8,1.3-3,2.4-3.7,3.3h3ZM277,108.5h.6l6.4-2.2c-.1-.3-.3-.6-.6-1-.3-.4-.5-.6-.7-.7,0,0-1,.6-3,1.9l-2.1,1.4-.6.6ZM278.3,109.5c.3.2.6.4.8.4.4,0,1-.3,1.7-.8.8-.6,1.3-1,1.5-1.4h-.3c-.5,0-1.2.1-2.2.5-1,.3-1.7.6-2.3.9.1,0,.4.2.7.5ZM284.8,109.4c0,.4-.1.7-.4,1-.3.3-.6.5-1.2.8-.5.3-.9.6-1.2.9-.3.3-.5.7-.5,1.1.6,0,1.2-.2,1.9-.6.7-.3,1.3-.5,1.8-.5.2,0,.3.2.3.5s-.1.7-.4.9c-.3.2-.7.5-1.2.8-.6.3-1,.6-1.3.9-.3.3-.5.6-.5,1.1.9,0,1.8-.2,2.8-.6,1-.4,1.5-1,1.5-1.6,0-3.1-.8-5.6-2.3-7.5,0,.5-.3.9-.7,1.2-.4.3-1,.7-1.8,1.2-.6.4-1.1.7-1.4.9-.3.2-.4.5-.4.8h1l-.6.5c0,.1.2.3.4.5.2.2.4.3.5.4.3,0,.5-.1.7-.3.2-.2.5-.5.8-.9.3-.4.5-.7.6-.7h-.7c-.5,0-.9.2-1.2.6,0-.9.9-1.4,2.6-1.4h.8ZM282.3,114.9c.2-.3.6-.6,1.1-.9.6-.6,1-.9,1.2-1-.4,0-.9.1-1.6.4-.7.3-1,.6-1,.9s.1.6.3.6ZM283.1,128.2c-.5.2-.8.6-.9,1.2-.1.6-.2,1.6-.2,3.2.3-.2.8-.5,1.6-1.1.8-.5,1.4-.8,1.7-.8l.9-1.2c-.4,0-1,.1-1.8.4-.8.2-1.4.5-1.8.8v-.3c0-.4.1-.7.5-1s.8-.5,1.5-.8c.3-.1.7-.3.9-.5.3-.2.4-.3.4-.5v-.3c-1.3.3-2.2.6-2.7.8ZM282.1,134.9c0,.2.1.4.1.6.2-.2.6-.5,1.4-1,.9-.5,1.5-1,2.1-1.4.5-.4.8-.8.8-1.1-1,0-2,.2-3,.5-1,.4-1.5.9-1.5,1.7s0,.4.1.6ZM286.9,121.1c0,0-.1,0-.2,0-1.5.7-2.7,1.6-3.6,2.5,0,0-.1,0-.2-.2,0-.3.1-.6.4-.8.3-.2.7-.5,1.3-.7.6-.3,1.1-.6,1.4-.8.3-.3.5-.6.5-1v-.3c0,0-3.6,1.1-3.6,1.1v-.3l3.5-1.7v-1.9c-1,.4-2.3,1.5-3.8,3.3-.2.7-.3,1.3-.3,2,0,.6,0,1.3,0,2,0,2,.1,3,.4,3h.3c.1-.6.4-1,.7-1.4.3-.3.8-.8,1.5-1.3.6-.4,1-.8,1.4-1.2-.3,0-.7,0-1.3.3-.5.2-.9.3-1.2.3.3-.4.9-.7,1.5-1,.5-.2.9-.4,1.1-.6.2-.2.4-.5.4-1s0,0,0-.2ZM283.7,117.8c.6-.5,1.3-1,2.1-1.6v-.4c-.3,0-.9.1-2,.4-1.1.3-1.6.5-1.6.8v2.5c.4-.7.9-1.3,1.5-1.8ZM283.6,127.4c.6,0,1.2-.2,1.8-.5.6-.2.9-.5.9-.7v-1.9c-.8.5-1.5,1-2.1,1.7-.6.6-.9,1-1,1.1.2.2.3.3.3.3ZM284.7,131.3c-.6.3-1.1.7-1.4,1.1.2,0,.5-.1,1.1-.3.5-.1,1-.3,1.4-.5.4-.2.5-.5.5-.8-.4,0-1,.2-1.6.5ZM287,135c0-.3,0-.6,0-1s-.1-.6-.2-.6h-.3l-2.2,1.4c1,0,1.8.4,2.5.8.2,0,.3-.2.3-.5v-.3ZM286.6,128.4c-.4,0-.7.2-1,.7.6-.1,1-.4,1-.7Z"/>
            </g>
            <g class="cls-2">
              <path class="cls-1" d="M298.4,128c.5-3.1.8-4.9,1-5.2v-16.4c0-.3,0-.8,0-1.3,0-.5.1-.9.2-1.3v-1c-.5,0-1.2.2-1.9.6-.3.2-.6.3-.9.5-.3.1-.5.2-.8.2-.8,0-1.2-1.6-1.2-4.9v-3.7c.6,0,1.4-.4,2.6-1.2,1.2-.8,2.4-1.7,3.5-2.9,1.2-1.1,2-2.2,2.5-3.2,1,0,2.3.1,4,.4,1.7.3,2.6.5,2.6.7.2.9.3,1.8.3,2.8s-.1,1.9-.3,3.1c-.2,1.4-.3,2.4-.3,3s0,1.7.1,2.6c0,1,.2,1.7.2,2.1.2,1.7.3,3.3.3,4.7s0,2-.1,3.7c-.1,1.3-.2,2.6-.2,3.8s0,1.4.1,2.6c.1.9.2,1.8.2,2.8,0,9.6-.5,14.4-1.5,14.4l-.8-.3c-1.5,0-3.1.1-5,.3-2.1.2-3.6.3-4.5.3s-.8,0-.9-.2-.2-.3-.2-.6v-.5c0-.9.2-2.9.7-6ZM298.8,94.7c-.8.3-1.4.7-1.8,1-.4.3-.6.9-.6,1.5h.7l5-3c-.4,0-.8,0-1.4.3l-.3-.6c-.2.2-.7.4-1.5.8ZM303.9,97.4c-1.9.5-3.6,1.1-5.1,2-1.5.8-2.2,1.7-2.2,2.6.3,0,1-.2,2-.6,1-.4,1.9-.8,2.8-1.3,1.7-.8,2.7-1.2,2.9-1.2.8-.2,1.7-.5,2.7-1.1,1-.5,1.4-.9,1.4-1.2-1,0-2.5.2-4.4.7ZM298,99c.6-.2,1.2-.5,1.5-.7.1,0,.5-.4,1.1-1,.6-.6,1.2-1.1,1.7-1.5.5-.4,1-.6,1.4-.6s1.2-.3,2.2-.8c.9-.5,1.4-.9,1.4-1.1-.6,0-1.7.4-3.5,1.2-1.8.8-4.1,2-7,3.8v1.2c.2,0,.6-.2,1.2-.5ZM302.9,132v.9l1.4-.6c0,.2,0,.4-.2.5-.1.1-.4.2-.7.4s-.6.3-.7.5h.7c.7,0,1.6,0,2.8-.2,1.2-.1,1.8-.3,1.8-.4v-2c-.2.3-.5.5-1,.7-.5.2-.8.4-1,.5l-.3-.3c.3-.2.6-.5,1.1-.8.5-.3.8-.7,1-1s.4-.7.4-1.3c-2.4,1.2-5.2,1.7-8.4,1.7l-.5,2.8.5.6,3.1-2ZM300.4,127.9c.6,0,1.4-.1,2.3-.4.9-.3,1.4-.6,1.7-1l3.6-1.7-.3-.3-3.3.5v-.3c0,0-.5.2-1.2.4-.7.2-1.4.3-2.1.5-.4.6-.6,1.3-.6,2.3ZM301.1,129.4c1.1,0,2.6-.2,4.4-.6,1.8-.4,2.7-.9,2.7-1.4v-1.1l-7.9,3h.8ZM301,109.7c0,.9.1,1.6.2,2h.3l5-2.2c0-.2.3-.3.5-.5.3-.2.5-.3.5-.3-.5,0-1,0-1.6.3-.6.2-1,.3-1.2.3-1.1.4-2,.6-2.6.6s-.4-.1-.4-.3c.9-1.6,3-2.9,6.1-3.9l.3-.3c-.8,0-2.2.4-4.2,1-2,.6-3.1,1.1-3.1,1.6s0,.9,0,1.8ZM306.5,122.4c-.6.3-1.2.5-1.9.7-.7.2-1.1.4-1.3.5-.3.1-.7.3-1.3.5-.5.2-.9.3-1.1.5h.6c.6,0,1.9-.2,3.9-.5,2-.3,3.1-.6,3.1-.6v-3.9c-.4,0-1.3.3-2.6.9-1.4.6-2.1,1.1-2.3,1.4,1.4-.5,2.5-.8,3.3-.8s.5.2.5.6-.3.5-.9.8ZM300.9,123.4c.3,0,.9-.2,1.6-.4.7-.2,1.3-.4,1.7-.7l-3,.6c-.2,0-.3.2-.3.5ZM301.2,113.8v.5c1.4,0,3.5-.9,6.1-2.6-.6,0-1.2.1-2.1.4-.8.3-1.3.4-1.4.5-1.1.3-1.9.6-2.3.6-.2,0-.3.3-.3.6ZM304.5,116.9c1.8-.8,2.7-1.3,2.9-1.6-.3,0-1.2.1-2.4.4-.2,0-.7.2-1.5.3-.8.2-1.5.3-2.1.3v1.8c.3,0,1.4-.4,3.2-1.2ZM304.1,119c-1.5.3-2.5.5-2.8.7v2l5.8-2.5c0-.1.3-.3.5-.4.3-.2.4-.3.5-.4-1.1.1-2.4.3-3.9.6ZM303.3,100.6c-1.2.4-1.7.7-1.7,1.1v3.9l1.5-.8c2.3-1.1,3.5-1.8,3.5-2.1-.9,0-1.8,0-2.9.2-1.1.1-1.6.2-1.8.2,0-.6.2-1,.6-1.3.4-.3,1-.6,1.7-.8.4-.1.7-.3,1-.5.3-.2.5-.4.5-.6-.5,0-1.3.2-2.4.5ZM306.9,114.9l1.4-.3.3-2.8c-.2.3-1.7,1.2-4.4,2.4-.4.2-.8.4-1.2.6-.4.2-.9.4-1.3.6v.3c1.1,0,2.9-.3,5.3-.8ZM302.2,112.5c0,0,.2.1.2.1.5-.2,1.4-.5,2.5-.9,1.2-.4,2.1-.6,2.7-.8h.6c0-.1,0-.2,0-.3,0-.4-.2-.6-.7-.6s-1.1.2-2.1.7c-1,.5-1.6.8-1.8.8-.4.3-1,.5-1.6.8,0,0,0,.1.1.2ZM302.6,118.7c.3,0,1.2-.2,2.6-.5,1.5-.3,2.4-.5,3-.7v-1.7c-.5.1-2.6,1.1-6.2,2.8h.6ZM307.6,90.6c-.3.5-.6.8-.8.8l-1.8.9c-.9.5-1.8.9-2.6,1.3h.3c.6,0,1.6-.1,2.9-.5,1.2-.4,2.1-.6,3-.6l.3.3v-1.4c0,0-.2,0-.3-.2-.1-.1-.2-.3-.2-.4s0-.3,0-.5c0-.2,0-.3,0-.5-.2,0-.5.2-.8.7ZM305.7,95.4c-1.8.8-2.8,1.4-3.1,1.8l1.7-.4c1.4-.3,2.5-.6,3.3-1,.8-.4,1.2-.9,1.3-1.7-.3,0-1.4.4-3.2,1.3ZM306,104.2c-1.2.7-2.4,1.3-3.4,1.7.7,0,1.9-.3,3.5-.8.3,0,.6-.2,1-.3.4-.1.8-.2,1.4-.3,0-.6,0-1.6-.1-2.9-.1-1-.2-2-.2-2.9v-.9c-.1,0-.5.3-1.1.5s-1,.6-1.4.9l1.9.3v.8c-.7.2-1.4.6-2.2,1-.4.3-1,.6-1.7.9.4,0,1,0,1.8-.1.8,0,1.4-.1,1.8-.1s.6.2.6.5c0,.4-.6,1-1.9,1.7ZM304.2,90.6c-.2.6-.4,1-.5,1.4,1.7-.6,2.8-1.2,3.3-1.9-.7-.2-1.5-.3-2.3-.3s-.4.3-.6.8ZM305.8,107.3c-.9.5-1.5.9-1.8,1.3,0,0,.8-.1,2.2-.5,1.4-.3,2-.6,2-.6v-1.4c-.7.3-1.5.6-2.4,1.1Z"/>
              <path class="cls-1" d="M340.9,115.5c.3.2.5.5.7.7.2.2.3.5.3.8,0,.6-.3,1.2-.9,2-.4.5-.7.9-.8,1.3l-10.6,10.2h-5.3c0-.1-.2-.2-.7-.3s-.8,0-.9,0c-1,0-1.8,0-2.4-.2-.6-.2-.9-.5-.9-1s.6-1.5,1.9-3.1,3-3.6,5.2-6c2.1-2.3,3.2-3.6,3.3-3.9l-3.2-3.9c-1.7-2.1-3-3.6-3.8-4.7l-1.4-1.3c-1.5-1.4-2.2-2.1-2.2-2.3,0-.8,1.3-1.2,4-1.2s1,0,1.4,0,.7,0,1.1,0h1.9c.3,0,.7,0,1.1.3.4.2.5.5.5.8,0,.3.4.6.9,1,.5.4.8.8,1.1,1l9,9.1c.1.1.3.3.6.5ZM321.9,128.6h1.4l-1-.5-.3.5ZM323.5,105.9c.5.6,1,1.1,1.4,1.4.4.3.8.6,1.2.7.3,0,1,.3,2.3.7,1.3.4,1.9.6,1.9.7h.3l-.3-.3c-.3-.3-1.3-.8-2.7-1.2-1.5-.5-2.2-.7-2.2-.8,0,0,0-.2.2-.4.1-.2.2-.3.2-.3.8,0,1.7.2,2.9.6.2,0,.6.1,1.1.3.5.1.9.2,1.3.2-.6-.8-1.8-1.5-3.5-2.1-1.7-.6-3.1-.9-4.2-.9s-.5.1-.6.3c0,0,.4.4,1,1.2ZM325.2,128.4c1,.3,1.8.6,2.3.8,0-.1-.1-.3-.4-.5-.2-.2-.5-.5-.8-.7-1.1-.9-1.7-1.6-2-2.1l-1.6,1.7c.8.4,1.6.7,2.4.9ZM329.9,126.6c-.3-.2-.7-.6-1.3-1.1-.6-.5-1.2-1-1.6-1.4-.5-.4-.7-.8-.7-1.2-.6.4-1,1-1.4,1.9l5,1.7ZM329.7,127.7c0-.3-.5-.7-1.5-1.1-1-.4-1.8-.7-2.3-.8.4.6,1,1.3,1.6,2,.6.7,1.1,1,1.4,1l.8-1.1ZM327.1,121.6c-.3.4-.5.8-.5,1.2,3.2.7,5,1.2,5.5,1.4,0,0-.5-.6-1.5-1.6s-1.8-1.5-2.4-1.5-.7.2-1.1.6ZM328,111.2c.2.4.4.6.6.7.3.1,1.1.3,2.4.6h.3l-3.6-1.9c0,0,.2.3.3.7ZM331.4,110.2c-1.6-.5-2.7-.7-3.4-.8.6.6,1.2,1.1,1.9,1.5.7.4,1.8.8,3.2,1.3,1.3.4,2.4.8,3.2,1.3-.2-.4-.4-.9-.7-1.3s-.6-.7-.9-.9c-.6-.3-1.6-.7-3.2-1.1ZM331.8,126c.2-.3.3-.6.4-.9,0-.2-.5-.5-1.5-.8-1-.3-1.8-.5-2.2-.5h-.5l3,2.5c.3,0,.5-.1.7-.4ZM329.6,119.1c-.2.2-.3.4-.5.9.6.4,1.6.9,2.8,1.3,1.2.4,2.1.6,2.7.6-.2-.2-.9-.8-2.2-1.7-1.3-.9-2-1.4-2.3-1.4s-.5,0-.6.2ZM331.1,114.9c.8.4,1.4.6,1.8.6l-1.1-1-2.1-1c.1.5.6.9,1.4,1.3ZM334.7,123c-.4-.3-1.2-.7-2.3-1.1-1.1-.5-2-.7-2.7-.7l3.6,2.8h.3c.4,0,.8-.3,1.2-1ZM331,116.7v1c0,0,.5,0,1.2.3.7.2,2,.6,3.8,1.2,0,0-.2-.1-.5-.3s-.6-.3-.8-.5c-1.4-.7-2.4-1.2-3.1-1.7h-.6ZM340,117.4c0-.6-.5-1.2-1.6-1.9-1.1-.7-2.2-1.2-3.4-1.6v.5c-.4,0-1.2-.2-2.2-.5-.1,0-.4-.1-.7-.3s-.7-.2-1-.3v.3c1.4.5,2.6.9,3.7,1.4,1,.5,1.8,1,2.4,1.6,0,0,.1.1.2.3,0,.1.2.2.3.2s.2,0,.3-.1c.3.2.5.4.8.7.3.3.5.4.6.4s.4-.2.6-.6ZM339.1,118.8c-.5-.5-1.1-.8-1.7-1.1-.6-.3-1.5-.5-2.4-.8-.2,0-.6-.2-1.4-.5s-1.4-.6-2-.9c.4.6.8,1,1.4,1.3.5.3,1.2.5,2,.8.8.3,1.5.6,2,.9.5.3.9.7,1.3,1.2l.9-.8ZM337.5,120.5c-1.2-.5-2.5-.9-3.7-1.2-1.2-.3-1.9-.5-2.2-.5.8.6,1.6,1.2,2.6,1.8,1,.7,1.5,1,1.7,1.1,0,0,.5-.4,1.5-1.2Z"/>
            </g>
          </g>
          <g>
            <path class="cls-1" d="M202.4,38.7c0,.2,0,.4.2.5,1.6,2.8,3.3,5.5,4.9,8.3.2.4.7.4,1,.1,6.7.5,13.5.8,20.3,1,.1,0,.3,0,.5,0h0c0,.1.2,0,.3,0,6.6.2,13.5.8,20,.1.2,0,.3,0,.3-.2.2,0,.3-.3.3-.6.2-7,.2-14,.5-21,.3-7,1-14,1-21,0,0,0,0,0,0,0-.2,0-.4-.1-.6-1.5-1.7-3.4-3.4-5.5-4.5.1-.2,0-.6-.3-.6-6.6-.6-13.4-.2-20-.2-6.7,0-13.3,0-20,0-.3,0-.5.2-.6.4-.1-.4-.8-.5-.9,0-1.4,6.1-1.4,12.6-1.6,18.7-.3,6.5-.3,13-.2,19.4h0ZM213.5,46.6c-.7-1.2-1.6-2.3-2.4-3.4-.8-1-1.6-2.3-2.6-2.9-.3-.2-.6.2-.4.5.5,1.1,1.6,2.1,2.4,3,.8.9,1.6,1.9,2.3,2.8-1.5,0-3-.1-4.4-.2-1.1-2.3-2.5-4.5-4-6.5,3.1.2,6.2.4,9.2.6,0,0,0,0,0,.2.7,1.4,1.8,2.7,2.7,3.9.5.6,1.1,1.7,1.8,2.3-1.5,0-3.1-.2-4.6-.2h0ZM219.4,46.9h0c0,0,0-.1,0-.2,0,0-.1,0-.2,0,0,.1-1.1-1.3-1.2-1.5-.4-.6-.8-1.2-1.3-1.8-.7-.9-1.3-1.9-2.1-2.8,1.3,0,2.6.2,3.9.2.5,1.2,1.4,2.2,2.2,3.2.8,1.1,1.7,2.1,2.6,3.1-1.3,0-2.6-.1-3.9-.2h0ZM223.8,47.1c-.7-1.2-1.5-2.3-2.3-3.5-.6-.9-1.2-2-2-2.8,1.1,0,2.1.1,3.2.2.9,1.2,2.1,2.2,3.1,3.4.8.9,1.6,1.9,2.3,2.9-1.4,0-2.8-.1-4.2-.2h0ZM228.8,47.3c-.6-1.1-1.3-2.1-2.1-3.1-.8-1-1.7-2.2-2.7-3.1h0c1.4,0,2.8.2,4.2.2.8,1.2,1.9,2.2,2.9,3.2,1,1,1.9,1.9,2.9,2.9-1.8,0-3.5,0-5.2,0h0ZM234.7,47.4c-1-1.2-2-2.3-3-3.4-.7-.8-1.4-1.8-2.3-2.5,1.3,0,2.7.2,4,.2,0,0,0,0,0,0,1.8,1.8,3.5,3.7,5.2,5.8-1.3,0-2.6,0-3.9,0ZM239.4,47.4c-1.2-2.1-2.8-4.1-4.6-5.7,1.4,0,2.9,0,4.3,0,1.7,2.1,3.7,4,5.7,5.8-1.8,0-3.6-.1-5.5-.2h0ZM245.7,47.6c-1.6-2-3.4-4.1-5.3-5.8,1.3,0,2.5,0,3.8-.2.2.1.4.1.6,0,1.1,2,2.5,4,4.1,5.7v.5c-1-.1-2.1-.2-3.1-.2h0ZM248.8,45.6c-1.2-1.5-2.5-3-3.7-4.5,0-1.6,0-3.1,0-4.7,1,1.7,2.2,3.4,3.4,4.9.1.1.2.2.4.1,0,1.4,0,2.8,0,4.1h0ZM247.9,3.7c1,.8,1.8,1.8,2.8,2.6,0,0,0,0,0,0-.1.7-.2,1.4-.3,2.1-1.4-1.8-3-3.5-4.6-5.1v-1.4c.6.6,1.3,1.2,2,1.8h0ZM245.9,4.3c1.4,1.8,2.9,3.7,4.5,5.3,0,.7-.1,1.3-.2,2-.5-.8-1.1-1.5-1.7-2.1-.8-.9-1.7-1.7-2.7-2.4,0-1,0-1.9,0-2.9h0ZM245.8,7.8c.7.7,1.4,1.4,2,2.1.8.9,1.4,2.1,2.2,3,0,.8-.1,1.6-.2,2.5-.4-.7-1.1-1.4-1.6-2-.8-.9-1.7-1.8-2.6-2.6,0-1,.1-2,.1-3h0ZM245.6,11.5c.7.8,1.4,1.5,2,2.3.7.9,1.3,2.1,2.2,2.8,0,1-.1,2-.1,3-1.1-1.7-2.6-3.4-4.2-4.6,0-1.2.1-2.3.2-3.5h0ZM245.4,15.6c1.5,1.7,2.9,3.5,4.2,5.3,0,1.2-.1,2.3-.1,3.5-.6-.9-1.4-1.6-2-2.4-.7-.8-1.5-1.6-2.2-2.5,0-1.3.1-2.7.2-4h0ZM245.2,20.9c0-.1,0-.3,0-.4.5.6.9,1.2,1.4,1.8.8,1,1.6,2.2,2.6,3,0,0,.1,0,.2,0,0,.4,0,.9,0,1.3,0,1,0,1.9-.1,2.9-1.2-1.8-2.7-3.5-4.1-5,0-1.2,0-2.5,0-3.7h0ZM245.1,25.6c1.3,1.8,2.6,3.7,4.1,5.4,0,1.1,0,2.2-.1,3.3-1.2-1.6-2.6-3.2-4-4.6,0-1.4,0-2.7,0-4.1h0ZM248.6,35.2c.1.1.2.2.4.1,0,1.7-.1,3.4-.1,5-1.1-1.8-2.5-3.5-3.8-5.2v-4.5c1.1,1.5,2.3,3.1,3.6,4.5h0ZM204.1,19.7c.2-6.1,1.1-12.3,1.1-18.5.1.2.3.3.6.3h20c6.4,0,12.9.2,19.3-.3-.9,6.3-.8,13-1,19.3-.2,6.8-.2,13.5-.1,20.3-6.4-.9-13.1-.8-19.5-1.2-6.9-.3-13.7-.8-20.5-1.1-.1-6.3,0-12.5.2-18.8h0Z"/>
            <path class="cls-1" d="M208.7,30.2c1.9,1.5,3.7,2.9,5.6,4.2.2.1.4,0,.5-.1,0,0,.1,0,.1,0,2-1.5,3.8-3.6,5.6-5.3,1.8-1.7,3.7-3.4,5.6-5,1.8,3,3.5,5.9,5.1,9,.2.3.5.3.8.2,1.9-.9,3.6-2.1,4.9-3.7.2-.2.1-.5,0-.6h0c-.6-1.6-1.4-3.1-2.4-4.5-.8-1.2-3.1-3.4-2.4-4.7.7-1.5,2.6-2.9,3.8-4.1,1.4-1.4,3-2.6,4.3-4,.2-.2.2-.5,0-.7,0,0,0-.1,0-.2-1.1-2.2-2.8-4.1-4.4-6-.2-.2-.6-.2-.8,0-3,2-6.5,4.5-8.4,7.7-1.9-2.8-4.8-5.1-7.3-7.4-.3-.2-.6-.2-.9,0-.1,0-.2,0-.4.1-1.6,1.3-3,2.8-4.5,4.3-.2.2-.2.5-.1.7h0c.2,1.3,1.9,2.5,2.7,3.4,1.2,1.2,2.5,2.5,3.8,3.7-2.3.9-4.3,3.4-5.8,5.1-2,2.2-3.8,4.5-5.3,7,0,.1,0,.2,0,.3-.2.2-.4.5,0,.8h0ZM215.3,22.8c1.6-1.8,4-3.4,5.2-5.4.5.1,1-.5.6-.9-1.3-1.4-2.6-2.7-4-4-.7-.7-1.6-1.8-2.6-2.4,1.4-1.4,2.8-2.7,4-4.2,2.5,2.3,4.9,5.1,7.7,7.1,0,.4.5.6.8.4,1.4-1.2,2.5-2.7,3.9-3.9,1.4-1.2,2.8-2.4,4.3-3.4,1.4,1.7,2.7,3.4,4.2,4.8-1.7,1.1-3.2,2.7-4.6,4.1-.8.8-1.6,1.7-2.4,2.5-.6.6-1.5,1.4-1.9,2.2-.6,1.2.9,2.3,1.6,3.2,1.5,2,2.7,4.1,4.1,6.1-1.3,1.1-2.7,2-4.2,2.8-1.6-3.1-3.3-6.2-5.1-9.1-.2-.4-.6-.4-1-.1-2.1,1.8-4.2,3.6-6.2,5.5-1.8,1.7-3.9,3.4-5.2,5.5-1.5-1.3-3.1-2.6-4.7-3.9,1.8-2.4,3.5-4.7,5.5-6.9h0Z"/>
          </g>
        </g>
      </g>
    </g>
  </g>
</svg>